<?xml version="1.0" encoding="UTF-8"?>
<svg width="1200pt" height="1200pt" version="1.1" viewBox="0 0 1200 1200" xmlns="http://www.w3.org/2000/svg">
 <path d="m645.89 623.21-0.011719-46.43h-93.023v108.52h93.043l-0.007813-61.934-0.011719-0.074219z" fill="#b9994c"/>
 <path d="m461.48 938.57c8.2812-14.348 21.66-24.609 37.656-28.898l314.49-84.27-12.227-45.629c-1.4531 0.13672-2.9102 0.28516-4.3516 0.28516-20.535 0-39.375-13.727-44.941-34.477-6.6367-24.773 8.1133-50.324 32.887-56.969l194.68-52.164c24.789-6.6289 50.332 8.1211 56.961 32.887 5.9531 22.223-5.3242 45.023-25.582 54.285l30.164 112.57 0.011719-471.56c0-0.43359-0.050781-0.85547-0.066406-1.2812l-87.168 150.7c-45.188 78.113-125.59 124.75-215.1 124.75h-62.016v46.516c0 17.102-13.914 31.004-31.004 31.004h-93.023c-17.102 0-31.004-13.914-31.004-31.004v-46.516h-62.016c-89.504 0-169.91-46.637-215.1-124.75l-87.168-150.71c-0.015625 0.42969-0.066406 0.84766-0.066406 1.2852v563.85c0 24.074 19.59 43.664 43.664 43.664h252.1c-0.5-11.656 2.25-23.23 8.2227-33.57z" fill="#b9994c"/>
 <path d="m271.57 498.52c39.578 68.422 109.95 109.27 188.25 109.27h62.016v-31.004c0-17.102 13.914-31.004 31.004-31.004h93.023c17.102 0 31.004 13.914 31.004 31.004v31.004h62.016c78.309 0 148.68-40.844 188.25-109.27l97.305-168.23c-7.418-5.8281-16.738-9.3281-26.887-9.3281h-796.39c-10.141 0-19.461 3.5117-26.887 9.3281z" fill="#b9994c"/>
 <path d="m988.25 698.36h0.007813l7.4844-2.0039c8.2578-2.2109 13.172-10.734 10.965-18.988-1.0742-3.9961-3.6367-7.3438-7.2227-9.4141-2.3867-1.3789-5.0391-2.0859-7.7266-2.0859-1.3516 0-2.6992 0.17969-4.043 0.53125l-194.68 52.164c-8.2578 2.2109-13.176 10.734-10.965 18.988 1.0742 3.9961 3.6367 7.3438 7.2227 9.4141 3.5859 2.0703 7.7617 2.6172 11.766 1.5469l7.4844-2.0039 179.7-48.148h0.011718z" fill="#b9994c"/>
 <path d="m762.16 200.41c0-6.3281-12.57-18.988-29.07-18.988h-267.45c-16.027 0-29.07 11.82-29.07 26.355v82.176h325.59z" fill="#b9994c"/>
 <path d="m1072 965.39c-1.3281 0-2.6719 0.17188-4.0039 0.53125l-7.4844 2.0039h-0.007813-0.007812l-179.7 48.148-7.4844 2.0039c-3.9961 1.0742-7.3438 3.6367-9.4141 7.2227-2.0703 3.5859-2.6172 7.7617-1.5469 11.762 1.0742 4.0039 3.6367 7.3516 7.2227 9.4219 3.5938 2.0781 7.7695 2.625 11.766 1.5469l194.68-52.164c3.9961-1.0742 7.3438-3.6367 9.4141-7.2227 2.0703-3.5859 2.625-7.7617 1.5508-11.766-1.8594-6.9102-8.1445-11.488-14.988-11.488z" fill="#b9994c"/>
 <path d="m832.17 894.58-10.508-39.219-314.49 84.27c-8.0039 2.1445-14.691 7.2734-18.832 14.445-4.1406 7.1758-5.2422 15.531-3.0977 23.527 4.4258 16.508 21.473 26.355 37.98 21.922l314.49-84.27z" fill="#b9994c"/>
 <path d="m845.74 945.22-100.46 26.918h107.68z" fill="#b9994c"/>
 <path d="m981.31 732.33-149.76 40.125 16.043 59.891 0.007812 0.015625 24.074 89.855 0.007813 0.023437 16.043 59.879 149.76-40.125z" fill="#b9994c"/>
</svg>
