<?xml version="1.0" encoding="UTF-8"?>
<svg width="1200pt" height="1200pt" version="1.1" viewBox="0 0 1200 1200" xmlns="http://www.w3.org/2000/svg">
 <path d="m584.48 366v192.42c0 1.2188 1.0312 2.1562 2.2031 2.0625 8.8594-0.65625 17.812-0.65625 26.625 0 1.2188 0.09375 2.2031-0.84375 2.2031-2.0625l0.046875-192.42c0-1.8281 2.2031-2.7656 3.5156-1.4531l20.25 20.25c6.0469 6.0469 15.891 6.0469 21.984 0 6.0469-6.0469 6.0469-15.891 0-21.984-6.2344-6.2344-49.688-50.156-52.453-52.078-6.2344-4.3594-14.625-3.5156-19.969 1.875l-50.203 50.203c-6.0469 6.0469-6.0469 15.891 0 21.984 6.0469 6.0469 15.891 6.0469 21.984 0l20.25-20.25c1.3125-1.3125 3.5625-0.375 3.5625 1.4531zm-58.125 342.1 53.859 43.078c0.84375 0.70312 2.1094 0.5625 2.8594-0.23438l74.109-84.703c5.625-6.4219 15.422-7.0781 21.844-1.4531s7.0781 15.422 1.4531 21.844l-85.172 97.312h-0.046875c-5.3906 6.1875-14.812 7.0781-21.281 1.9219l-66.984-53.578c-6.6562-5.3438-7.7812-15.047-2.4375-21.75 5.3906-6.7031 15.094-7.7812 21.797-2.4375zm-73.453 73.125c2.7188 10.594 6.6094 20.719 11.438 30.281 0.23438 0.46875 0.5625 0.79688 1.0312 0.98438 6.9375 2.9531 13.828 6.2344 20.625 9.9375 0.32812 0.1875 0.60938 0.23438 0.98438 0.23438h162c22.219 0 42.281 11.109 54.422 28.5 0.75 1.0312 2.25 1.2188 3.1406 0.28125 59.859-58.922 60.891-155.81 0.89062-215.81-59.297-59.297-155.48-59.297-214.82 0-37.5 37.453-53.391 92.766-39.703 145.6zm-186.66 282.94v-240.14c0-8.0156-6.6094-14.625-14.625-14.625h-70.641c-8.0156 0-14.625 6.6094-14.625 14.625v240.14c0 8.0156 6.6094 14.625 14.625 14.625h70.641c8.0156 0 14.625-6.6094 14.625-14.625zm216.32-108.89c-8.5781 0-15.516-6.9844-15.516-15.516 0-8.5781 6.9844-15.516 15.516-15.516h166.36c31.172 0 47.156-37.828 24.844-60.094-6.375-6.375-15.188-10.359-24.844-10.359l-166.36-0.046875v-0.09375c-2.5781 0-5.2031-0.65625-7.5938-1.9688-54.703-30.844-116.3-34.266-176.02-21.703-0.98438 0.1875-1.6406 1.0312-1.6406 2.0156v215.58c0 1.0312 0.75 1.9219 1.7812 2.0625 38.859 5.2031 74.344 12.281 108.38 19.078 122.72 24.469 225.79 45.047 386.11-47.156l218.16-171.42c26.297-20.672 21.656-54.844-6.2344-62.344-8.3438-2.25-17.391-1.3125-25.312 3.2344l-200.53 115.78c-4.5 2.5781-37.688 24.188-71.953 36.891-25.875 9.6094-54.797 11.531-58.781 11.531zm210.94-716.72c56.016 0 101.48 45.422 101.48 101.48 0 57.188-47.156 102.94-104.16 101.44-1.1719-0.046875-2.1094 0.89062-2.1094 2.0625v46.734c0 12.469 10.172 22.641 22.641 22.641h289.45c12.469 0 22.641-10.172 22.641-22.641v-97.594c0-1.125 0.9375-2.0625 2.0625-2.0625h20.484c24.797 0 45.047-20.297 45.047-45.047 0-24.797-20.297-45.047-45.047-45.047h-20.484c-1.125 0-2.0625-0.9375-2.0625-2.0625v-97.594c0-12.469-10.172-22.641-22.641-22.641h-97.594c-1.125 0-2.0625-0.9375-2.0625-2.0625v-20.484c0-24.797-20.297-45.047-45.047-45.047-24.797 0-45.047 20.297-45.047 45.047v20.484c0 1.125-0.9375 2.0625-2.0625 2.0625l-97.641-0.09375c-12.469 0-22.641 10.172-22.641 22.641v35.719c0 2.6719 3.0938 2.0625 4.7812 2.0625zm-288.52 112.45c0 57.188 47.156 102.94 104.16 101.44 1.1719-0.046875 2.1094 0.89062 2.1094 2.0625v35.719c0 12.469-10.219 22.641-22.641 22.641h-97.594c-1.125 0-2.0625 0.9375-2.0625 2.0625v20.484c0 24.797-20.297 45.047-45.047 45.047-24.797 0-45.047-20.297-45.047-45.047v-20.484c0-1.125-0.9375-2.0625-2.0625-2.0625h-97.594c-12.469 0-22.641-10.172-22.641-22.641v-97.594c0-1.125-0.9375-2.0625-2.0625-2.0625h-20.484c-24.797 0-45.047-20.297-45.047-45.047 0-24.797 20.297-45.047 45.047-45.047h20.484c1.125 0 2.0625-0.9375 2.0625-2.0625v-97.594c0-12.469 10.172-22.641 22.641-22.641h289.45c12.469 0 22.641 10.172 22.641 22.641v46.734c0 1.1719-0.9375 2.1094-2.1094 2.0625-57.047-1.5-104.2 44.25-104.2 101.39z" fill="#b9994c" fill-rule="evenodd"/>
</svg>
