<?xml version="1.0" encoding="UTF-8"?>
<svg width="1200pt" height="1200pt" version="1.1" viewBox="0 0 1200 1200" xmlns="http://www.w3.org/2000/svg">
 <path d="m818.72 1101.6c0 10.922 14.531 20.016 24.188 24.609 45.422 18.375 96.188 18.375 141.61 0 14.906-7.125 24.188-15.844 24.188-24.609v-40.828c-47.391 31.547-142.55 31.547-189.94 0v40.828zm-25.688 4.0781h-583.69v-974.39l754.26-0.046876v211.74c-11.109-7.6875-17.484-20.672-36.234-20.672-21.75 0-30.141 19.969-40.078 22.641-9.8906 2.6719-27.141-10.453-46.031 0.46875s-16.031 32.25-23.391 39.609c-8.8594 8.8594-28.172 3.7031-39.609 23.391-4.125 7.1719-5.4844 15.609-3.8438 23.719 5.3438 26.297 7.125 19.828-10.688 39.938-11.438 12.75-11.438 32.109 0 44.859 15.188 17.156 16.547 14.156 12.047 33.703-3.375 9.5156-2.6719 20.062 2.0156 29.016 9.8906 19.547 32.672 16.922 40.078 24.328s4.5 28.688 23.391 39.609 36-2.2031 46.031 0.46875c12 3.1875 17.344 22.594 40.078 22.594 18.844 0 25.125-12.891 36.234-20.625v83.016h-0.046875c-43.922-10.219-90-6.4688-131.68 10.781-24.141 11.484-39.047 28.359-39.047 48l-0.046876 313.78zm25.688-85.547v-40.828c47.391 31.547 142.55 31.547 189.94 0v40.875c0 8.7188-9.2344 17.484-24.188 24.609l0.046875-0.046875c-45.422 18.375-96.188 18.375-141.61 0-14.953-7.125-24.188-15.844-24.188-24.609zm0-81.469c0 8.7656 9.2344 17.531 24.188 24.609 45.422 18.375 96.188 18.375 141.61 0 14.906-7.125 24.188-15.844 24.188-24.609v-40.781c-47.391 31.547-142.55 31.547-189.94 0v40.781zm0-81.469c0 8.7188 9.2344 17.484 24.188 24.609 45.422 18.375 96.188 18.375 141.61 0 14.906-7.125 24.188-15.844 24.188-24.609v-28.781c-47.391 31.547-142.55 31.547-189.94 0v28.781zm94.969-107.77c-24.281-0.5625-48.422 4.1719-70.781 13.781-32.156 15.281-32.156 33.938 0 49.219v-0.046875c45.422 18.375 96.188 18.375 141.61 0 32.109-15.281 32.109-33.938 0-49.219v0.046875c-22.359-9.5625-46.5-14.25-70.828-13.781zm0.70312-311.02v3.4688c-4.125 1.5938-7.9219 3.8906-11.25 6.7969-10.688 9.5156-14.203 24.703-8.7656 37.969 5.3906 13.219 18.609 21.562 32.906 20.812 5.3906 0 9.8906 2.8594 9.8906 8.1562 0 8.625-16.406 11.625-21.422 3.1406-3.6562-6.1406-11.625-8.2031-17.766-4.5469s-8.1562 11.578-4.5469 17.719c4.7812 7.7812 12.234 13.547 20.953 16.125v2.5781-0.046875c0 7.1719 5.8125 12.984 12.984 12.984 7.125 0 12.938-5.8125 12.938-12.984v-3.4688c4.125-1.5938 7.9219-3.8906 11.25-6.7969 10.734-9.5156 14.25-24.75 8.8125-38.016-5.4844-13.266-18.797-21.609-33.094-20.766-2.3906 0.32812-4.8281-0.42188-6.6562-1.9688-1.875-1.5469-2.9531-3.8438-3.0469-6.2344 0-8.625 16.406-11.625 21.422-3.1406 3.6562 6.1875 11.578 8.2031 17.719 4.5469s8.2031-11.578 4.5469-17.719c-4.7344-7.7812-12.234-13.5-20.953-16.078v-2.5781c0-7.1719-5.8125-12.938-12.938-12.938-7.1719 0-12.984 5.7656-12.984 12.938zm12.938-57.234h0.046875c-45.844 0-87.141 27.609-104.67 69.938s-7.8281 91.078 24.562 123.47 81.141 42.094 123.47 24.562 69.891-58.828 69.938-104.67c-0.14062-62.531-50.812-113.16-113.3-113.3zm61.781 51.516h0.046875c-29.484-29.484-75.703-34.078-110.39-10.922-34.688 23.203-48.188 67.641-32.203 106.17 15.938 38.531 56.906 60.422 97.781 52.312 40.922-8.1562 70.406-44.062 70.406-85.781 0-23.156-9.2344-45.375-25.594-61.781zm-648.66 317.29v-79.219c0-7.125-5.8125-12.938-12.938-12.938h-77.438c-3.4688 0-6.75 1.3594-9.1875 3.7969s-3.7969 5.7188-3.7969 9.1406v79.219c0 3.4219 1.3594 6.75 3.7969 9.1875 2.4375 2.3906 5.7188 3.7969 9.1875 3.75h77.438c7.125 0 12.938-5.7656 12.938-12.938zm-77.438-12.938h51.516v-53.391h-51.516zm201.84 12.938v-207.28c0-7.1719-5.7656-12.938-12.938-12.938h-77.438c-7.1719 0-12.984 5.7656-12.984 12.938v207.28c0 7.1719 5.8125 12.938 12.984 12.938h77.438c3.4219 0.046875 6.75-1.3594 9.1875-3.75 2.3906-2.4375 3.7969-5.7656 3.75-9.1875zm-77.438-12.938h51.516v-181.36h-51.516zm201.89 12.938v-131.29c0-7.1719-5.8125-12.984-12.984-12.984h-77.438c-3.4219 0-6.75 1.3594-9.1406 3.7969-2.4375 2.4375-3.7969 5.7188-3.7969 9.1875v131.29c0 3.4219 1.3594 6.75 3.7969 9.1875 2.3906 2.3906 5.7188 3.7969 9.1406 3.75h77.438c7.1719 0 12.984-5.7656 12.984-12.938zm-77.438-12.938h51.516v-105.42h-51.516zm201.84 12.938v-234.74c0-7.1719-5.8125-12.984-12.938-12.984h-77.484c-3.4219 0-6.7031 1.3594-9.1406 3.7969s-3.7969 5.7188-3.7969 9.1875v234.74c0 3.4219 1.3594 6.75 3.7969 9.1875 2.4375 2.3906 5.7188 3.7969 9.1406 3.75h77.484c7.1719 0 12.984-5.7656 12.984-12.938zm-77.438-12.938h51.516v-208.78l-51.516-0.046875zm43.969-365.44c-13.078 0-25.406 5.9531-33.562 16.172-8.1562 10.172-11.25 23.531-8.4375 36.281l-61.641 35.531c-9.375-8.625-22.125-12.656-34.734-10.969-12.656 1.6406-23.906 8.8125-30.75 19.547l-68.719-18.422c-0.51562-12.047-6.0938-23.344-15.375-31.125-9.2344-7.7812-21.328-11.297-33.328-9.7031-11.953 1.5938-22.734 8.1094-29.672 18-6.8906 9.8906-9.375 22.266-6.75 34.031l-61.594 35.578c-15.656-14.344-39.469-15.094-56.062-1.7812-16.547 13.312-20.953 36.703-10.312 55.125 10.641 18.375 33.141 26.297 52.922 18.562 19.828-7.7344 31.031-28.734 26.391-49.5l61.594-35.578c9.4219 8.625 22.125 12.609 34.734 10.969 12.656-1.6406 23.906-8.8125 30.75-19.547l68.719 18.422c0.51562 12.047 6.0938 23.344 15.375 31.078 9.2344 7.7812 21.328 11.297 33.328 9.7031 11.953-1.5938 22.734-8.1094 29.625-18 6.9375-9.9375 9.375-22.266 6.75-34.078l61.594-35.531c10.5 9.6562 25.031 13.453 38.906 10.266 13.828-3.2344 25.219-13.078 30.375-26.344 5.2031-13.266 3.4688-28.219-4.5469-39.938-8.0625-11.766-21.375-18.75-35.578-18.75zm12.141 30.844c-4.9219-4.875-12.281-6.3281-18.703-3.7031-6.375 2.6719-10.594 8.9062-10.594 15.844s4.2188 13.219 10.594 15.891c6.4219 2.625 13.781 1.1719 18.703-3.75 6.7031-6.7031 6.7031-17.531 0-24.281zm-132.79 76.688c-4.9219-4.9219-12.281-6.375-18.703-3.7031-6.4219 2.625-10.594 8.9062-10.594 15.844s4.1719 13.172 10.594 15.844c6.4219 2.6719 13.781 1.1719 18.703-3.7031 6.7031-6.7031 6.7031-17.578 0-24.281zm-148.13-39.703c-4.875-4.875-12.281-6.375-18.656-3.7031-6.4219 2.6719-10.594 8.9062-10.594 15.844s4.1719 13.219 10.594 15.891c6.375 2.625 13.781 1.1719 18.656-3.75 6.7031-6.7031 6.7031-17.531 0-24.281zm-132.74 76.688c-4.9219-4.9219-12.281-6.375-18.703-3.75-6.4219 2.6719-10.594 8.9531-10.594 15.891s4.1719 13.172 10.594 15.844 13.781 1.1719 18.703-3.75c6.6562-6.7031 6.6562-17.531 0-24.234zm133.08 549.71h319.97c7.1719 0 12.984-5.7656 12.984-12.938s-5.8125-12.984-12.984-12.984h-319.97c-7.125 0-12.938 5.8125-12.938 12.984s5.8125 12.938 12.938 12.938zm0-60.188 258.98 0.046875c7.1719 0 12.984-5.8125 12.984-12.984s-5.8125-12.938-12.984-12.938h-258.98c-7.125 0-12.938 5.7656-12.938 12.938s5.8125 12.984 12.938 12.984zm-140.81-35.062c-7.1719 0-12.938 5.7656-12.938 12.938v78.562c0 7.1719 5.7656 12.984 12.938 12.984h87.516c7.1719 0 12.938-5.8125 12.938-12.984v-78.562c0-7.1719-5.7656-12.938-12.938-12.938zm74.578 25.922-61.641-0.046875v52.641l61.688 0.046875v-52.688zm591.32-642.37c-3.5156-3.2812-5.5781-5.9062-9.5625-5.9062s-6 2.625-9.6094 5.9062c-19.219 17.812-26.812 19.875-52.359 14.016-4.5469-1.0312-7.8281-2.3906-11.25-0.375-3.4219 2.0156-4.0312 5.7188-5.3438 9.9375-7.6875 25.078-13.219 30.609-38.344 38.297-3.6094 1.125-7.875 1.7344-9.9375 5.2969s-0.65625 6.7031 0.375 11.25c5.8594 25.5 3.7969 33.188-14.062 52.359-3.2812 3.6094-5.9062 5.5781-5.9062 9.6094s2.625 6 5.9062 9.6094c17.812 19.219 19.875 26.812 14.016 52.359-1.0312 4.5-2.3906 7.875-0.375 11.25s5.625 4.0312 9.8906 5.3438c25.078 7.6875 30.609 13.219 38.344 38.297 1.3125 4.2188 1.875 7.9219 5.3438 9.9375 3.4688 2.0156 6.7031 0.65625 11.25-0.375 25.5-5.8594 33.188-3.7969 52.359 14.016 2.8125 2.625 5.3906 6 9.6094 6 3.9375 0 6-2.7188 9.5625-6 20.297-18.844 28.406-19.5 52.359-14.016 4.5469 1.0312 7.8281 2.3906 11.25 0.375 3.4219-2.0156 4.0312-5.7188 5.3438-9.9375 7.6875-25.078 13.219-30.609 38.297-38.297 3.6094-1.125 7.875-1.7344 9.9375-5.2969s0.65625-6.7031-0.375-11.25c-5.8125-25.688-3.75-33.328 14.062-52.547 3.2812-3.5625 5.9062-5.5781 5.9062-9.6094s-2.625-6-5.9062-9.6094c-17.812-19.219-19.875-26.859-14.016-52.359 1.0312-4.5469 2.3906-7.875 0.375-11.25s-5.625-4.0312-9.9375-5.3438c-25.078-7.6875-30.609-13.219-38.297-38.297-1.3125-4.2188-1.875-7.9219-5.3438-9.9375-3.4688-2.0156-6.7031-0.65625-11.25 0.375-23.906 5.4844-32.062 4.7812-52.359-14.062zm-525.1 560.21h319.97c7.1719 0 12.984-5.8125 12.984-12.984 0-7.125-5.8125-12.938-12.984-12.938h-319.97c-7.125 0-12.938 5.8125-12.938 12.938 0 7.1719 5.8125 12.984 12.938 12.984zm0-60.188h258.98c7.1719 0 12.984-5.8125 12.984-12.984 0-7.125-5.8125-12.938-12.984-12.938h-258.98c-7.125 0-12.938 5.8125-12.938 12.938 0 7.1719 5.8125 12.984 12.938 12.984zm-140.81-35.109c-7.1719 0-12.938 5.8125-12.938 12.938v78.609c0 7.125 5.7656 12.938 12.938 12.938h87.516c7.1719 0 12.938-5.8125 12.938-12.938v-78.609c0-7.125-5.7656-12.938-12.938-12.938zm74.578 25.922h-61.641v52.641h61.688v-52.641zm-83.531-673.78-0.046875-0.046875c-3.4219 0-6.7031 1.3594-9.1406 3.7969s-3.7969 5.7188-3.7969 9.1875v157.97c0 7.125 5.8125 12.938 12.938 12.938h158.02c7.1719 0 12.938-5.8125 12.938-12.938v-157.97c0-7.1719-5.7656-12.984-12.938-12.984zm145.03 25.922h-132v132h132zm-117 70.922 18.516 32.109-0.046875-0.046875c2.0156 3.5156 5.5312 5.8594 9.5156 6.375 4.0312 0.51562 8.0156-0.84375 10.875-3.7031l61.078-61.031c4.875-5.1094 4.7812-13.172-0.1875-18.141s-13.031-5.0625-18.141-0.1875l-49.219 49.125-10.125-17.484h0.046875c-3.5625-6.1875-11.484-8.2969-17.672-4.6875-6.1875 3.5625-8.2969 11.484-4.6875 17.672zm193.36 41.25h198.71c7.125 0 12.938-5.8125 12.938-12.984s-5.8125-12.938-12.938-12.938h-198.74c-7.1719 0-12.984 5.7656-12.984 12.938s5.8125 12.984 12.984 12.984zm0-66.422h339.94c7.1719 0 12.938-5.8125 12.938-12.984s-5.7656-12.938-12.938-12.938h-339.98c-7.1719 0-12.984 5.7656-12.984 12.938s5.8125 12.984 12.984 12.984zm397.22-137.44v-45.422h-754.22v974.39h57v-906.42c0.046876-12.422 10.125-22.5 22.547-22.547z" fill="#b9994c" fill-rule="evenodd"/>
</svg>
