<?xml version="1.0" encoding="UTF-8"?>
<svg width="1200pt" height="1200pt" version="1.1" viewBox="0 0 1200 1200" xmlns="http://www.w3.org/2000/svg">
 <path d="m972.74 855.14c1.5938-13.969-2.25-29.531-17.156-32.906-7.1719-1.6406-16.641-0.5625-28.5 4.125l-185.26 92.766c6.1875 13.969 9.2812 29.812 9.6562 46.734zm-729.94-22.172h-186.1v314.76h186.1l0.046874-314.76zm28.125 277.4v-201l190.45-79.453c22.312-9.2812 46.219-18.797 68.344-7.5938l162.47 82.312c26.812 13.594 33 45.516 30.844 75.188-21.047 5.8125-65.203-9.1406-93.844-18.797-11.344-3.8438-20.531-6.9375-26.438-8.0625-7.5938-1.4531-15 3.5625-16.406 11.156-1.4531 7.5938 3.5625 15 11.156 16.406 4.2188 0.84375 12.562 3.6562 22.828 7.125 36.094 12.188 93.469 31.594 122.68 13.969 0.1875-0.09375 0.375-0.23438 0.60938-0.375l247.4-123.89c0.42187-0.1875 0.84375-0.375 1.2188-0.65625l46.453-23.25c14.531-5.8125 25.125-5.625 31.781-1.7344 3.4688 2.0156 6.0469 5.2031 7.7344 9.1875 8.9062 20.719-6.2812 51.938-28.266 66.469l-238.36 147c-81.281 50.156-116.72 40.453-177.32 23.812-33.375-9.1406-73.828-20.25-131.9-25.641-17.062-1.6406-92.109 5.1094-156.24 17.531-28.641 5.5781-55.594 12.328-75.188 20.297zm614.63-765.24h-37.5c-10.219 0-18.562 8.3438-18.562 18.562v37.5c0 12.562-4.7812 24.141-13.688 33l-26.531 26.531c-7.2188 7.2188-7.2188 19.078 0 26.297l26.531 26.531c8.9062 8.9062 13.688 20.438 13.688 33.047v37.5c0 10.219 8.3438 18.562 18.562 18.562h37.5c12.562 0 24.141 4.7812 33 13.688l26.531 26.531c7.2188 7.2188 19.078 7.2188 26.297 0l26.531-26.531c8.9062-8.9062 20.438-13.688 33.047-13.688h37.5c10.219 0 18.562-8.3438 18.562-18.562v-37.5c0-12.562 4.7812-24.141 13.688-33.047l26.531-26.531c7.2188-7.2188 7.2188-19.078 0-26.297l-26.531-26.531c-8.9062-8.9062-13.688-20.438-13.688-33v-37.5c0-10.219-8.3438-18.562-18.562-18.562h-37.5c-12.562 0-24.141-4.7812-33.047-13.688l-26.531-26.531c-7.2188-7.2188-19.078-7.2188-26.297 0l-26.531 26.531c-8.8125 8.8594-20.391 13.688-33 13.688zm18.703 296.72-48.938 84.75-22.875-40.688c-2.8125-4.9688-8.1094-7.5938-13.406-7.125l-45.75 0.51562 38.156-66.094c8.625 10.875 21.938 17.719 36.609 17.719h37.5c9.1875-0.09375 12.422 4.5938 18.703 10.922zm200.86-28.734 38.156 66.094-45.75-0.51562c-5.3438-0.46875-10.688 2.1562-13.406 7.125l-22.875 40.734-48.938-84.703c6.2812-6.2812 9.5156-10.969 18.656-10.969h37.5c14.719-0.046875 27.984-6.8438 36.656-17.766zm-94.031-192c29.156 29.156 29.156 76.5 0 105.66s-76.5 29.156-105.66 0-29.156-76.5 0-105.66 76.5-29.156 105.66 0zm-52.781-50.016c56.812 0 102.84 46.031 102.84 102.84s-46.031 102.84-102.84 102.84-102.84-46.031-102.84-102.84 46.031-102.84 102.84-102.84zm-505.97 142.64c44.344 58.172 96.938 103.88 160.08 141 4.2188 2.5312 9.6562 2.7188 14.25 0.09375 59.906-34.688 112.78-80.625 155.53-135l13.688 13.688c3.8438 3.8438 5.4375 7.7812 5.4375 13.125v18.188c-25.969 31.031-54.562 59.812-85.547 86.016-30 25.406-62.156 48.375-96.188 68.625-70.688-42-133.5-96-185.68-159.42 5.1094-16.969 11.578-32.297 18.422-46.312zm-63.562-259.03 230.9-109.41 244.69 115.88c-2.8125 18.891-6.6094 37.219-11.531 55.781h-4.6875c-25.781 0-46.688 20.953-46.688 46.688v37.5c0 5.4375-1.5938 9.3281-5.4375 13.125l-26.531 26.531c-15.562 15.562-18 39.797-6.4688 58.031-39.422 51.094-87.891 94.219-143.29 127.45-59.812-35.859-111.94-83.719-152.76-140.11 16.125-28.969 33.094-56.531 33.094-85.547-0.09375-68.859-46.5-128.11-111.28-145.92zm-99.469 6.6562-8.7188-48.469 339.05-160.6 339.05 160.6c-2.9062 19.922-6.6562 40.078-11.25 59.766-8.1562 1.9219-15.844 6.0938-22.172 12.375l-26.531 26.531c-5.5781 5.5781-9.9375 5.4375-16.969 5.4375 1.7812-7.125 3.4688-14.438 4.9688-21.844 2.6719-12.938 4.875-26.109 6.6562-39.562 1.1719-6.1406-1.875-12.562-7.7812-15.328l-259.92-123.14c-3.6562-1.7344-8.0625-1.875-12 0l-259.97 123.14c-3.75 1.7812-6.4688 5.0625-7.5469 9.0469-20.156 0.32812-39.328 4.5469-56.859 12.047zm87.844 460.13h-57.234v14.625c0 7.2188 5.9062 13.125 13.125 13.125h31.031c7.2188 0 13.125-5.9062 13.125-13.125zm28.5-59.719h-114.23v31.547h114.23zm-114.19-28.125h114.23v-31.547h-114.23zm19.125-240.74c-9.1875-9.1875-23.109 4.7344-13.922 13.922 4.0312 4.0312 10.031 2.9062 16.828 2.9062 0-6.7969 1.0312-12.797-2.9062-16.828zm58.406-19.875c24-24 64.875-6.6562 64.875 26.812 0 20.906-17.062 37.969-37.969 37.969h-33.281v136.13h38.906c17.625-84.328 70.312-132.66 70.312-173.29 0-68.062-55.219-123.28-123.28-123.28s-123.28 55.219-123.28 123.28c0 40.594 52.688 89.156 70.312 173.29h38.906v-136.13h-30.891c-33.516 0-50.859-40.828-26.812-64.875 24-24 64.875-6.6562 64.875 26.812v9.8438h16.266c-0.09375-13.969-0.5625-24.938 11.062-36.562zm26.859 16.969c-5.4375 0-9.8438 4.5-9.8438 9.8438v9.8438c6.8438 0 12.844 1.0781 16.828-2.9062 6.2812-6.2812 1.5938-16.781-6.9844-16.781zm580.97 55.828c5.4844-5.4844 14.391-5.4844 19.875 0 5.4844 5.4844 5.4844 14.391 0 19.875l-36.375 36.375c-5.4844 5.4844-14.391 5.4844-19.875 0l-20.625-20.625c-5.4844-5.4844-5.4844-14.391 0-19.875 5.4844-5.4844 14.391-5.4844 19.875 0l10.688 10.688zm-327.42 25.078-12.938-76.031c-1.0312-5.4375 1.2188-11.25 6.1875-14.438 23.109-14.812 26.391-47.062 7.1719-66.281-26.859-26.906-73.031-7.7812-73.031 30.281 0 14.625 7.4062 28.219 19.5 35.906 4.6875 2.9062 7.4062 8.4375 6.4688 14.25l-12.938 76.359zm16.172-72.562c31.406-26.812 33.609-74.719 4.2188-104.11-27.656-27.656-72.562-27.656-100.27 0-29.438 29.438-27.188 77.344 4.2188 104.11l-14.156 83.344c-1.9688 9.5625 4.9688 17.344 13.688 17.344h92.812c8.5312 0 15.281-7.8281 13.875-16.312zm-506.86 643.97c4.9688 4.9688 4.9688 13.031 0 18-7.9688 7.9688-21.75 2.3438-21.75-9 0-11.391 13.781-17.016 21.75-9zm-9-31.875c36.281 0 54.562 44.062 28.875 69.75s-69.75 7.4062-69.75-28.875c0-22.594 18.281-40.875 40.875-40.875z" fill="#b9994c" fill-rule="evenodd"/>
</svg>
