<?xml version="1.0" encoding="UTF-8"?>
<svg width="1200pt" height="1200pt" version="1.1" viewBox="0 0 1200 1200" xmlns="http://www.w3.org/2000/svg">
 <path d="m422.67 245.58c-26.043-0.011719-47.109 21.508-47.07 47.418l0.4375 260.19c0.035157 25.812 21.094 46.793 46.91 46.793h220.69l103.3 68.863c9.3398 6.2461 21.301-2.8438 17.781-13.516l-18.473-55.352 160.65 0.089844c26.051 0.015625 47.301-21.434 47.324-47.418l0.25391-259.48c0.011719-12.035-3.7695-23.949-12.016-32.957-8.2305-8.9883-20.879-14.438-35.445-14.461zm248.15 47.418c21.824 0 40.207 15.145 45.547 35.379h72.648c4.9414-0.007812 8.4375 3.4023 10.055 5.7656 1.6172 2.3672 59.039 94.625 59.039 94.625 2.2773 4.5977 1.7656 6.0625 0.46094 11.762-1.3047 5.6992-3.5352 12.297-9.0391 23.133-3.3633 6.6172-7.5703 13.449-13.516 19.258-5.9453 5.8086-14.25 10.707-24.145 10.723l-47.348 0.089844c-9.7891 0.015625-17.836-5.0586-23.523-10.887s-9.7422-12.656-12.984-19.258c-4.4453-9.043-6.3633-14.914-8.0938-20.988-1.7344-6.0703-3.1406-9.6367 0.023438-14.23l47.695-76.359h-51.246c-4.3203 16.418-17.242 29.43-33.695 33.766v131.59h70.758c16.098-0.35547 16.098 23.973 0 23.617h-165.27c-15.387 0.40234-16.547-22.465-0.60156-23.617h71.473v-131.57c-16.5-4.3164-29.477-17.293-33.789-33.789h-51.223s47.793 76.434 47.809 76.477c1.2305 1.8867 1.8438 7.6484 0.41406 12.34-1.4258 4.6875-3.5 12.25-8.8789 22.832-3.3633 6.6172-7.6641 13.449-13.605 19.258-5.9453 5.8086-14.25 10.707-24.148 10.723l-47.23 0.089843c-9.7891 0.015626-17.859-5.0586-23.547-10.887s-9.7422-12.656-12.984-19.258c-5.1562-10.492-7.5547-18.582-8.625-22.762-1.0703-4.1836-0.80078-10.527 0.4375-12.383 1.2383-1.8555 58.441-93.449 58.441-93.449 2.4414-4 6.0859-6.6094 10.586-6.6172h72.578c5.3281-20.238 23.695-35.379 45.527-35.379zm0.023437 23.617c-13.184 0-23.617 10.434-23.617 23.617 0 13.184 10.434 23.617 23.617 23.617s23.617-10.434 23.617-23.617c0-13.184-10.434-23.617-23.617-23.617zm-118.04 45.848-37.777 60.402h75.484zm236.14 0.089843-37.777 60.309h75.484zm-278.32 83.949c1.1289 2.9883 0.84375 3.3633 2.4453 6.6172 2.5664 5.2227 5.7617 10.207 8.7188 13.238s4.9766 3.7617 6.6172 3.7578h47.23c2.2695-0.003906 4.5664-1.0625 7.6797-4.1055 3.1133-3.043 6.3398-7.8984 8.9727-13.078 1.6094-3.1641 1.3125-3.5156 2.4453-6.4336zm236.21 0c1.1289 2.9883 0.84766 3.3711 2.4453 6.6172 2.5664 5.2227 5.668 10.207 8.625 13.238s4.9766 3.7617 6.6172 3.7578h47.254c2.2695-0.003906 4.5664-1.0625 7.6797-4.1055 3.1133-3.043 6.4336-7.8984 9.0625-13.078 1.6094-3.1641 1.2891-3.5156 2.4219-6.4336zm-394.44 82.633-59.41 0.023438c-14.562 0-27.152 5.4766-35.402 14.484-8.25 9.0039-12.098 20.883-12.086 32.934l0.25391 259.52c0.035156 25.984 21.27 47.434 47.324 47.418l137.02-0.089844-18.426 55.281c-3.5625 10.672 8.4023 19.809 17.758 13.562l103.3-68.863h244.35c25.816 0 46.871-21.027 46.91-46.84l0.30078-212.91-45.273-0.023438 8.0938 24.215c10.691 32.004-25.172 59.422-53.25 40.707l-97.363-64.934h-213.56c-38.191 0-70.449-32.246-70.504-70.434zm29.035 177.1 307.01-0.003907c15.758 0 15.758 23.641 0 23.641l-307.01-0.003907c-15.758 0-15.758-23.641 0-23.641zm0 47.254 307.01-0.003906c15.398 0.35547 15.398 23.273 0 23.617h-307.01c-15.398-0.35547-15.398-23.273 0-23.617zm0 47.23 307.01-0.003906c15.781-0.023438 15.781 23.664 0 23.641h-307.01c-15.781 0.023438-15.781-23.664 0-23.641z" fill="#b9994c"/>
</svg>
