<?xml version="1.0" encoding="UTF-8"?>
<svg width="1200pt" height="1200pt" version="1.1" viewBox="0 0 1200 1200" xmlns="http://www.w3.org/2000/svg">
 <path d="m639.42 282 57.469-52.594 32.484-29.719 0.46875-0.42188 0.32812-0.32812c11.344-9.4688 28.078-8.4375 38.156 2.3906l0.42188 0.46875 0.32812 0.32812c9.4688 11.344 8.4375 28.125-2.3906 38.203l-15.469 14.203c-0.46875 0.375-0.9375 0.79688-1.4062 1.2188l-94.5 85.266-0.09375 0.09375-0.42188 0.375c-2.3906 2.2031-4.5938 4.6406-6.5625 7.2656l-0.9375 0.84375c-11.25 10.312-28.734 9.5156-39-1.6875-10.312-11.25-9.5156-28.734 1.7344-39.047zm-126.37 57.891c-19.922 20.297-36.141 43.969-47.906 69.844-4.5938 10.266-7.9219 21.047-9.8438 32.109 14.25 32.297 30.375 63.703 48.328 94.078 12.656 21.469 26.578 42.141 41.766 61.922l6.2812-45.609v0.046875c0.9375-7.0312 6.8906-12.281 13.969-12.281h68.719c7.0781 0 13.031 5.2031 13.969 12.188l7.2188 52.078c16.125 4.5 31.641 10.922 46.172 19.172l41.344-31.312c5.625-4.7344 13.922-4.4062 19.125 0.79688l48.609 48.609c4.9688 4.9688 5.4844 12.844 1.2188 18.469l-31.781 42c4.125 7.2656 7.7812 14.812 11.016 22.547 3.1875 7.6875 5.9062 15.609 8.1094 23.672l37.359 5.1562 119.16-150.74c-63.656-74.156-65.766-111.56-67.875-148.74-0.14062-18.938-3.75-37.688-10.641-55.312-3 5.7188-6.9844 10.875-11.766 15.234l-57.469 52.594c-22.5 20.578-57.375 19.219-78.281-3.0469-0.51562-0.51562-0.98438-1.0781-1.4062-1.6406-7.0312-8.1562-11.578-18.141-13.031-28.828-7.8281 3.3281-16.266 4.875-24.75 4.4531-14.812-0.60938-28.734-7.0312-38.812-17.906l-0.375-0.42188-0.09375-0.09375v0.046875c-8.625-9.5156-13.641-21.75-14.156-34.594-18.422 2.8125-37.031-3.7031-49.641-17.438-18.609-20.391-19.5-51.328-2.1094-72.797-9.2812-2.8125-17.672-8.0625-24.281-15.141-0.51562-0.51562-0.98438-1.0781-1.4531-1.6875-9.2812-10.734-14.109-24.656-13.453-38.859 0.23438-5.3906 1.2188-10.688 3-15.75-10.688 9.6094-20.531 19.594-29.344 28.641l-0.046875-0.046875c2.0625 3.75 3.7969 7.6406 5.25 11.672 6.5156 18.562 6.5625 38.719 0.14062 57.328l-0.28125 0.70312c-2.5312 7.0781-6.5625 13.5-11.859 18.844zm69.188-79.5c10.453 10.406 27.234 10.828 38.203 0.9375l57.562-52.594v-0.046875c10.828-10.031 11.859-26.812 2.3906-38.156-0.51562-0.51562-1.0312-1.0312-1.5-1.6406-10.453-10.406-27.281-10.828-38.25-0.89062l-56.484 51.703c-0.14062 0.1875-0.32812 0.32812-0.51562 0.51562l-0.46875 0.42188h0.046875c-10.828 10.031-11.906 26.812-2.3906 38.156 0.46875 0.51562 0.9375 1.0312 1.4062 1.5938zm169.69 144.56c-10.828 10.078-11.906 26.859-2.3906 38.203l0.32813 0.32812 0.42187 0.46875v-0.046875c10.312 11.156 27.703 11.906 39 1.7344l57.469-52.594c10.828-10.078 11.906-26.859 2.3906-38.203l-0.32813-0.32812-0.42187-0.46875v0.046875c-10.312-11.156-27.703-11.906-39-1.7344zm12.281-124.18-94.781 86.719h-0.046876c-6.4688 10.266-5.3438 23.578 2.8125 32.578l0.28125 0.32812c10.547 11.109 27.984 11.859 39.422 1.6875l94.547-85.219 0.23438-0.23438h0.046874c10.828-10.031 11.578-26.906 1.6875-37.875l-0.23437-0.23438c-10.5-11.203-28.031-12-39.469-1.7812zm-415.64 571.22c-6.9844-0.9375-12.188-6.8906-12.188-13.922v-68.766c0-1.3594 0.1875-2.6719 0.5625-3.9375l-121.5-153.71c-0.46875-0.46875-0.89062-1.0312-1.3125-1.5938-1.8281-2.2969-4.0312-4.2656-6.5156-5.8594-2.5312-1.5469-5.2969-2.625-8.2031-3.1406-2.4375-0.51562-4.9688-0.5625-7.4531-0.046875-2.0625 0.46875-3.9844 1.4062-5.625 2.7656l-60.75 48.609v-0.046875c-3.5156 3.0938-5.5781 7.5469-5.5781 12.234-0.09375 6.2812 2.0156 12.375 6 17.25l163.31 206.58c1.9688 2.625 4.3594 4.8281 7.125 6.6094 2.5312 1.5469 5.2969 2.625 8.2031 3.1406 2.4375 0.51562 4.9688 0.5625 7.4531 0.046875 2.0625-0.46875 3.9844-1.4062 5.625-2.7656l50.859-40.688zm486.89-26.203-32.859 4.5469c-0.60938 0.046875-1.2656 0.14062-1.875 0.23438l-14.391 1.9688v0.046875c-5.8594 0.75-10.641 5.1094-11.953 10.875-4.4062 19.359-12.047 37.875-22.594 54.75-3.5156 5.0156-3.4219 11.719 0.28125 16.641l30.094 39.703-31.219 31.219-39.703-30.094c-4.6406-3.5625-11.016-3.7969-15.984-0.70312-16.922 10.734-35.578 18.469-55.125 23.016-5.9062 1.1719-10.406 5.9531-11.25 11.953l-6.75 49.266h-44.25l-6.7969-49.219h0.046875c-0.75-5.8594-5.1094-10.641-10.875-11.953-19.406-4.4062-37.922-12.047-54.797-22.547-4.9688-3.5625-11.719-3.4219-16.594 0.23438l-39.703 30.094-31.219-31.219 30.094-39.703v0.046875c3.5156-4.6875 3.7969-11.062 0.65625-15.984-10.641-16.969-18.375-35.578-22.875-55.078-1.1719-5.9062-6-10.406-11.953-11.203l-14.531-2.0156c-0.60938-0.09375-1.2188-0.1875-1.875-0.23438l-32.906-4.5469v-22.219h0.046875v-22.078l49.219-6.7969c5.8594-0.75 10.641-5.1094 11.906-10.875 4.4062-19.359 12.047-37.875 22.5-54.703 3.5625-5.0156 3.4688-11.766-0.23438-16.641l-30.094-39.797 31.219-31.219 39.703 30.094v0.046875c4.6406 3.5156 11.016 3.7969 15.984 0.65625 8.5312-5.3906 17.484-10.031 26.812-13.875 5.2969-2.2031 10.688-4.125 16.172-5.8125 0.42188-0.09375 0.79688-0.23438 1.2188-0.375 3.6094-1.0781 7.2188-2.0156 10.875-2.8594h-0.046875c5.9062-1.1719 10.453-6 11.25-11.953l6.7969-49.312h44.25l6.75 49.219c0.75 5.8594 5.1094 10.594 10.875 11.906 19.406 4.4531 37.875 12.094 54.797 22.594 4.9688 3.5156 11.719 3.4219 16.594-0.28125l39.703-30.094 31.219 31.219-30.047 39.797c-3.5156 4.6406-3.7969 11.016-0.65625 15.984 10.641 16.922 18.375 35.531 22.875 55.031 1.1719 5.9531 6 10.453 12 11.25l49.219 6.7969zm-138.24-21.797c0-46.359-32.766-86.297-78.234-95.344-45.516-9.0469-91.031 15.328-108.8 58.125-17.719 42.844-2.7656 92.297 35.812 118.03 38.578 25.781 89.953 20.719 122.72-12.094 18.281-18.188 28.5-42.938 28.5-68.719zm377.21-151.64-60.75-48.609v0.046875c-1.6406-1.3594-3.5625-2.2969-5.625-2.7656-2.4844-0.51562-5.0156-0.46875-7.4531 0.046875-2.9062 0.51562-5.6719 1.5938-8.2031 3.1406-2.4844 1.5938-4.6875 3.5625-6.5156 5.8594-0.42188 0.5625-0.84375 1.0781-1.3125 1.5938l-121.45 153.61c0.375 1.3125 0.5625 2.625 0.5625 3.9844v68.766c0.046875 7.0781-5.2031 13.031-12.234 13.969l-20.016 2.7656 50.859 40.688c1.6406 1.3594 3.5625 2.2969 5.625 2.7656 2.4844 0.51562 5.0156 0.46875 7.4531-0.046875 2.9062-0.5625 5.6719-1.5938 8.2031-3.1406 2.7656-1.7812 5.1562-4.0312 7.125-6.6094l163.31-206.58c3.9844-4.875 6.0938-10.969 6-17.25 0-4.6875-2.0625-9.1406-5.5781-12.234zm-474.42 82.688c-32.906 0-61.219 23.25-67.641 55.547-6.4219 32.25 10.828 64.547 41.25 77.156s65.484 1.9688 83.766-25.406 14.672-63.844-8.625-87.094c-12.891-12.938-30.469-20.25-48.75-20.203zm-199.36 13.125c4.4531-16.125 10.922-31.641 19.172-46.219l-31.359-41.344c-4.7344-5.5781-4.4062-13.875 0.79688-19.078l48.609-48.609c4.9688-4.9688 12.844-5.5312 18.469-1.2656l42 31.781c7.2656-4.125 14.766-7.8281 22.5-11.016l0.1875-0.09375c-15.047-19.875-28.969-40.594-41.625-62.109-7.7344-12.984-14.953-25.969-21.609-38.625-0.65625 7.6406-2.4375 15.094-5.25 22.219-7.125 18-23.062 30.984-42.141 34.312-7.5938 1.6406-15.141-3.1875-16.781-10.828-1.6875-7.5938 3.1875-15.141 10.781-16.781 9.8906-1.5938 18.234-8.1562 22.078-17.391 4.7812-15.891 5.1562-32.812 1.0312-48.891-3.6094-25.875 0.51562-52.219 11.859-75.797 13.172-29.016 31.312-55.5 53.625-78.328 1.2188-1.2188 2.2969-2.5781 3.2344-4.0312 0.89062-1.4531 1.6406-3 2.25-4.6406l0.1875-0.51562c4.2656-12.516 4.2188-26.109-0.1875-38.578-2.5781-8.0625-7.6406-15.141-14.484-20.203-13.359 10.922-32.062 24.469-51.938 38.812-38.391 27.75-81.328 58.734-92.344 75.609v-0.046875c-18 25.594-27.656 56.109-27.703 87.375-2.1094 37.219-4.2188 74.578-67.922 148.69l119.16 150.74z" fill="#b9994c"/>
</svg>
