<?xml version="1.0" encoding="UTF-8"?>
<svg width="1200pt" height="1200pt" version="1.1" viewBox="0 0 1200 1200" xmlns="http://www.w3.org/2000/svg">
 <path d="m1133.3 793.17-269.5-269.67c-25.793-25.723-60.738-40.164-97.164-40.164-36.43 0-71.371 14.441-97.168 40.164l-269.5 269.67c-10.672 10.641-16.668 25.094-16.668 40.164 0 15.074 5.9961 29.523 16.668 40.168l9.832 9.832c9.7148 9.2852 22.344 14.922 35.738 15.953 13.398 1.0352 26.742-2.6016 37.762-10.285v177.67c0.007813 22.098 8.793 43.289 24.418 58.914 15.625 15.629 36.816 24.41 58.918 24.418h400c22.098-0.007812 43.289-8.7891 58.914-24.418 15.629-15.625 24.41-36.816 24.418-58.914v-177.5c9.6328 7.1484 21.34 10.949 33.332 10.832 15.09 0.089844 29.574-5.9219 40.168-16.668l9.832-9.832c10.672-10.645 16.668-25.094 16.668-40.168 0-15.07-5.9961-29.523-16.668-40.164zm-316.66 323.5h-133.34v-150c0.039063-13.25 5.3203-25.945 14.688-35.312 9.3711-9.3711 22.066-14.648 35.312-14.688h66.668c13.25 0.039062 25.945 5.3164 35.312 14.688 9.3672 9.3672 14.648 22.062 14.688 35.312v150zm293.16-266.67-9.832 9.832c-4.543 4.1797-10.492 6.5-16.668 6.5-6.1719 0-12.121-2.3203-16.664-6.5l-259.84-259.83c-10.641-10.672-25.094-16.668-40.164-16.668-15.074 0-29.523 5.9961-40.168 16.668l-259.83 259.83c-4.5469 4.1797-10.492 6.5-16.668 6.5s-12.121-2.3203-16.668-6.5l-9.832-9.832c-4.3789-4.4414-6.832-10.43-6.832-16.668 0-6.2344 2.4531-12.223 6.832-16.664l269.67-269.5c19.473-19.527 45.918-30.5 73.5-30.5 27.578 0 54.023 10.973 73.496 30.5l269.67 269.5c4.3789 4.4414 6.8359 10.43 6.8359 16.664 0 6.2383-2.457 12.227-6.8359 16.668z" fill="#b9994c"/>
 <path d="m600 433.33h-66.668c-4.4141 0.015625-8.6484 1.7734-11.77 4.8984-3.1211 3.1211-4.8828 7.3516-4.8945 11.77v66.668c0.011719 4.4141 1.7734 8.6484 4.8945 11.77s7.3555 4.8828 11.77 4.8945h79.332l4-4 0.003907-79.332c-0.015625-4.418-1.7734-8.6484-4.8984-11.77-3.1211-3.125-7.3516-4.8828-11.77-4.8984zm0 0h-66.668c-4.4141 0.015625-8.6484 1.7734-11.77 4.8984-3.1211 3.1211-4.8828 7.3516-4.8945 11.77v66.668c0.011719 4.4141 1.7734 8.6484 4.8945 11.77s7.3555 4.8828 11.77 4.8945h79.332l4-4 0.003907-79.332c-0.015625-4.418-1.7734-8.6484-4.8984-11.77-3.1211-3.125-7.3516-4.8828-11.77-4.8984zm83.332-383.33h-550c-22.098 0.007812-43.289 8.7891-58.914 24.418-15.629 15.625-24.41 36.816-24.418 58.914v933.34c0.007812 22.098 8.7891 43.289 24.418 58.914 15.625 15.629 36.816 24.41 58.914 24.418h316.67c3.2539 0.023438 6.4453-0.91406 9.1719-2.6914s4.8711-4.3203 6.1602-7.3086l4-9c-12.641-19.07-19.367-41.453-19.332-64.332v-133.67c-23.863 0.125-46.789-9.293-63.668-26.168l-9.832-9.832c-16.988-16.875-26.531-39.84-26.5-63.785 0.03125-23.945 9.6328-46.887 26.668-63.715l202.66-202.83h-46c-13.246-0.039063-25.941-5.3203-35.312-14.688-9.3672-9.3711-14.648-22.066-14.688-35.312v-66.668c0.039063-13.25 5.3203-25.945 14.688-35.312 9.3711-9.3672 22.066-14.648 35.312-14.688h66.668c13.25 0.039062 25.945 5.3203 35.312 14.688s14.648 22.062 14.688 35.312v46.168c31.555-29.746 73.305-46.266 116.67-46.168v-316.67c-0.007813-22.098-8.793-43.289-24.418-58.914-15.625-15.629-36.816-24.41-58.918-24.418zm-350 933.33c-0.039062 13.25-5.3164 25.945-14.688 35.312-9.3672 9.3711-22.062 14.648-35.312 14.688h-66.664c-13.25-0.039062-25.945-5.3164-35.312-14.688-9.3711-9.3672-14.648-22.062-14.688-35.312v-66.664c0.039062-13.25 5.3164-25.945 14.688-35.312 9.3672-9.3711 22.062-14.648 35.312-14.688h66.668-0.003907c13.25 0.039062 25.945 5.3164 35.312 14.688 9.3711 9.3672 14.648 22.062 14.688 35.312zm0-233.33c-0.039062 13.25-5.3164 25.945-14.688 35.312-9.3672 9.3672-22.062 14.648-35.312 14.688h-66.664c-13.25-0.039062-25.945-5.3203-35.312-14.688-9.3711-9.3672-14.648-22.062-14.688-35.312v-66.668c0.039062-13.246 5.3164-25.941 14.688-35.312 9.3672-9.3672 22.062-14.648 35.312-14.688h66.668-0.003907c13.25 0.039063 25.945 5.3203 35.312 14.688 9.3711 9.3711 14.648 22.066 14.688 35.312zm0-233.33c-0.039062 13.246-5.3164 25.941-14.688 35.312-9.3672 9.3672-22.062 14.648-35.312 14.688h-66.664c-13.25-0.039063-25.945-5.3203-35.312-14.688-9.3711-9.3711-14.648-22.066-14.688-35.312v-66.668c0.039062-13.25 5.3164-25.945 14.688-35.312 9.3672-9.3672 22.062-14.648 35.312-14.688h66.668-0.003907c13.25 0.039062 25.945 5.3203 35.312 14.688 9.3711 9.3672 14.648 22.062 14.688 35.312zm0-233.33v-0.003907c-0.039062 13.25-5.3164 25.945-14.688 35.312-9.3672 9.3711-22.062 14.648-35.312 14.688h-66.664c-13.25-0.039062-25.945-5.3164-35.312-14.688-9.3711-9.3672-14.648-22.062-14.688-35.312v-66.664c0.039062-13.25 5.3164-25.945 14.688-35.312 9.3672-9.3711 22.062-14.648 35.312-14.688h66.668-0.003907c13.25 0.039062 25.945 5.3164 35.312 14.688 9.3711 9.3672 14.648 22.062 14.688 35.312zm316.67 0v-0.003907c-0.039062 13.25-5.3203 25.945-14.688 35.312-9.3672 9.3711-22.062 14.648-35.312 14.688h-66.668c-13.246-0.039062-25.941-5.3164-35.312-14.688-9.3672-9.3672-14.648-22.062-14.688-35.312v-66.664c0.039063-13.25 5.3203-25.945 14.688-35.312 9.3711-9.3711 22.066-14.648 35.312-14.688h66.668c13.25 0.039062 25.945 5.3164 35.312 14.688 9.3672 9.3672 14.648 22.062 14.688 35.312zm-50 150-66.668-0.003907c-4.4141 0.015625-8.6484 1.7734-11.77 4.8984-3.1211 3.1211-4.8828 7.3516-4.8945 11.77v66.668c0.011719 4.4141 1.7734 8.6484 4.8945 11.77s7.3555 4.8828 11.77 4.8945h79.332l4-4 0.003907-79.332c-0.015625-4.418-1.7734-8.6484-4.8984-11.77-3.1211-3.125-7.3516-4.8828-11.77-4.8984z" fill="#b9994c"/>
 <path d="m216.67 200h66.668c9.2031 0 16.668 9.2031 16.668 16.668v66.668c0 9.2031-7.4609 16.668-16.668 16.668h-66.668c-9.2031 0-16.668-9.2031-16.668-16.668v-66.668c0-9.2031 7.4609-16.668 16.668-16.668z" fill="#b9994c"/>
 <path d="m216.67 433.33h66.668c9.2031 0 16.668 9.2031 16.668 16.668v66.668c0 9.2031-7.4609 16.668-16.668 16.668h-66.668c-9.2031 0-16.668-9.2031-16.668-16.668v-66.668c0-9.2031 7.4609-16.668 16.668-16.668z" fill="#b9994c"/>
 <path d="m533.33 200h66.668c9.2031 0 16.668 9.2031 16.668 16.668v66.668c0 9.2031-7.4609 16.668-16.668 16.668h-66.668c-9.2031 0-16.668-9.2031-16.668-16.668v-66.668c0-9.2031 7.4609-16.668 16.668-16.668z" fill="#b9994c"/>
 <path d="m216.67 666.67h66.668c9.2031 0 16.668 9.2031 16.668 16.668v66.668c0 9.2031-7.4609 16.668-16.668 16.668h-66.668c-9.2031 0-16.668-9.2031-16.668-16.668v-66.668c0-9.2031 7.4609-16.668 16.668-16.668z" fill="#b9994c"/>
 <path d="m216.67 900h66.668c9.2031 0 16.668 9.2031 16.668 16.668v66.668c0 9.2031-7.4609 16.668-16.668 16.668h-66.668c-9.2031 0-16.668-9.2031-16.668-16.668v-66.668c0-9.2031 7.4609-16.668 16.668-16.668z" fill="#b9994c"/>
</svg>
